<?xml version="1.0" encoding="UTF-8"?> <svg xmlns="http://www.w3.org/2000/svg" xmlns:xlink="http://www.w3.org/1999/xlink" width="143pt" height="149pt" viewBox="0 0 143 149"><g id="surface1"><path style=" stroke:none;fill-rule:nonzero;fill:rgb(13.72549%,12.156863%,12.54902%);fill-opacity:1;" d="M 121.921875 27.894531 C 120.492188 26.472656 118.980469 25.105469 117.429688 23.804688 C 117.027344 27.328125 116.328125 30.816406 115.347656 34.226562 C 114.984375 35.578125 114.570312 36.929688 114.125 38.316406 C 130.035156 55.234375 134.339844 79.921875 125.078125 101.171875 C 115.820312 122.425781 94.765625 136.195312 71.464844 136.234375 C 67.558594 136.222656 63.660156 135.832031 59.828125 135.070312 C 56.746094 139.949219 54.421875 143.625 53.804688 144.480469 L 52.425781 146.433594 C 83.667969 155.046875 116.824219 141.640625 133.148438 113.796875 C 149.472656 85.953125 144.863281 50.667969 121.921875 27.894531 Z M 121.921875 27.894531 "></path><path style=" stroke:none;fill-rule:nonzero;fill:rgb(13.72549%,12.156863%,12.54902%);fill-opacity:1;" d="M 13.8125 87.90625 C 8.546875 87.273438 3.726562 84.667969 0.332031 80.617188 C 0.269531 80.558594 0.214844 80.496094 0.160156 80.429688 C 0.707031 98.460938 8.164062 115.601562 21.007812 128.34375 L 21.851562 129.148438 C 23.574219 126.753906 26.136719 122.835938 29.132812 118.300781 C 21.082031 109.921875 15.746094 99.335938 13.8125 87.90625 Z M 13.8125 87.90625 "></path><path style=" stroke:none;fill-rule:nonzero;fill:rgb(13.72549%,12.156863%,12.54902%);fill-opacity:1;" d="M 74.769531 92.066406 L 91.660156 92.066406 C 94.121094 92.28125 96.546875 91.398438 98.285156 89.652344 C 99.628906 88.273438 100.398438 86.4375 100.4375 84.519531 C 100.449219 82.765625 99.785156 81.074219 98.578125 79.796875 C 97.246094 78.390625 95.355469 77.648438 93.414062 77.761719 L 83.894531 77.761719 C 86.992188 72.75 89.972656 67.507812 92.828125 62.035156 C 95.671875 56.574219 98.167969 51.253906 100.300781 46.117188 C 102.316406 41.332031 104.042969 36.429688 105.464844 31.4375 C 106.644531 27.546875 107.300781 23.519531 107.410156 19.457031 C 107.410156 13.023438 105.6875 8.167969 102.246094 4.894531 C 98.804688 1.621094 93.140625 -0.0117188 85.253906 0 C 74.378906 -0.101562 63.589844 1.964844 53.527344 6.074219 C 44.292969 9.800781 35.707031 14.945312 28.082031 21.324219 C 21.316406 26.949219 15.59375 33.714844 11.179688 41.308594 C 7.441406 47.367188 5.335938 54.28125 5.066406 61.382812 C 5.066406 67.304688 6.132812 71.546875 8.269531 74.113281 C 10.691406 76.820312 14.242188 78.25 17.875 77.984375 C 23.28125 77.886719 28.589844 76.527344 33.367188 74.011719 C 38.707031 71.359375 43.675781 68.023438 48.140625 64.085938 C 52.539062 60.238281 56.480469 55.894531 59.878906 51.148438 C 62.785156 47.34375 64.925781 43.011719 66.179688 38.402344 C 66.4375 36.996094 66.609375 36.054688 66.679688 35.613281 C 66.726562 35.257812 66.753906 34.90625 66.765625 34.550781 C 66.875 32.875 66.15625 31.253906 64.835938 30.203125 C 63.546875 29.25 61.972656 28.742188 60.363281 28.765625 C 58.5625 28.761719 56.804688 29.300781 55.316406 30.304688 C 53.683594 31.449219 52.566406 33.179688 52.203125 35.132812 C 51.210938 38.773438 49.449219 42.164062 47.039062 45.074219 C 44.386719 48.480469 41.429688 51.644531 38.207031 54.519531 C 35.261719 57.1875 32.0625 59.558594 28.652344 61.605469 C 26.433594 63.136719 23.863281 64.09375 21.179688 64.394531 C 20.007812 64.394531 19.269531 64.105469 18.941406 63.523438 C 18.558594 62.644531 18.390625 61.6875 18.460938 60.734375 C 18.613281 58.15625 19.273438 55.632812 20.40625 53.304688 C 21.933594 49.882812 23.851562 46.644531 26.121094 43.65625 C 28.949219 39.914062 32.101562 36.429688 35.539062 33.234375 C 39.445312 29.578125 43.78125 26.402344 48.449219 23.769531 C 53.578125 20.882812 59.015625 18.589844 64.664062 16.925781 C 70.90625 15.097656 77.390625 14.210938 83.894531 14.289062 C 86.289062 14.148438 88.675781 14.683594 90.78125 15.828125 C 92.507812 17.070312 93.433594 19.132812 93.207031 21.238281 C 93.019531 24.316406 92.335938 27.34375 91.175781 30.203125 C 89.53125 34.65625 87.617188 39.003906 85.445312 43.226562 C 82.976562 48.121094 80.109375 53.527344 76.835938 59.449219 C 73.566406 65.371094 70.09375 71.546875 66.421875 77.984375 C 61.832031 77.84375 58.386719 77.777344 56.09375 77.777344 L 50.496094 77.777344 C 48.539062 77.667969 46.640625 78.445312 45.332031 79.898438 C 44.207031 81.257812 43.597656 82.964844 43.613281 84.726562 C 43.601562 86.515625 44.210938 88.253906 45.332031 89.652344 C 46.683594 91.234375 48.683594 92.125 50.773438 92.066406 L 58.160156 92.253906 C 53.234375 100.367188 30.613281 135.035156 28.238281 137.808594 C 27.109375 139.027344 26.546875 140.664062 26.695312 142.316406 C 26.84375 143.96875 27.683594 145.480469 29.011719 146.484375 C 30.53125 147.761719 32.464844 148.449219 34.453125 148.417969 C 36.699219 148.285156 38.785156 147.210938 40.1875 145.457031 C 41.613281 143.746094 43.320312 141.503906 45.351562 138.613281 C 47.382812 135.71875 71.792969 96.824219 74.769531 92.066406 Z M 74.769531 92.066406 "></path></g></svg> 